<?xml version="1.0" encoding="UTF-8"?>
<svg id="_レイヤー_1" data-name=" レイヤー 1" xmlns="http://www.w3.org/2000/svg" width="20" height="30" version="1.1" viewBox="0 0 20 30" fill="#231815">
  <defs>
    <style>
      .cls-1 {
        stroke-width: 0px;
      }
    </style>
  </defs>
  <g id="Clear">
    <g>
      <path class="cls-1" d="M2.7,23.2c-.3,0-.6-.1-.8-.4-.2-.3-.4-.7-.6-1.2-.1-.5-.2-1-.2-1.6v-10.8c0-.6,0-1.1.2-1.6s.3-.9.6-1.2c.2-.3.5-.4.8-.4h7v2.9H2.9s-.2,0-.3.2v11c0,.1.2.2.3.2h6.7v2.9s-6.9,0-6.9,0Z"/>
      <path class="cls-1" d="M10.9,23.2V5.9h1.4v14.4h7.2v2.9s-8.6,0-8.6,0Z"/>
    </g>
  </g>
</svg>