<?xml version="1.0" encoding="UTF-8"?>
<svg id="_レイヤー_1" data-name=" レイヤー 1" xmlns="http://www.w3.org/2000/svg" width="32" height="16" version="1.1" viewBox="0 0 32 16" fill="#231815">
  <defs>
    <style>
      .cls-1 {
        stroke-width: 0px;
      }
    </style>
  </defs>
  <g id="_レイヤー_1-2" data-name=" レイヤー 1-2">
    <g>
      <path class="cls-1" d="M2.9,14.4v-5c0-.5,0-.9.3-1.3.2-.4.5-.7.9-.9s.8-.3,1.2-.3h8v-3.1H5.2v1.1h-2.4v-1c0-.5,0-.9.3-1.3.2-.4.5-.7.9-.9s.8-.3,1.2-.3h7.9c.5,0,.9.1,1.3.3s.7.5.9.9.3.8.3,1.3v2.9c0,.4-.1.9-.3,1.2-.2.3-.5.7-.9.9s-.8.3-1.3.3H5.1v2.7h10.5v2.4H2.9Z"/>
      <path class="cls-1" d="M25.1,14.4v-3.3h-8.2v-2.2L25.2,1.6h2.2v7.3h1.8v2.4h-1.8v3.3h-2.4.1ZM20.6,8.8h4.5v-3.7l-4.5,3.7Z"/>
    </g>
  </g>
</svg>