<?xml version="1.0" encoding="UTF-8"?>
<svg id="_レイヤー_1" data-name=" レイヤー 1" xmlns="http://www.w3.org/2000/svg" width="32" height="16" version="1.1" viewBox="0 0 32 16" fill="#231815">
  <defs>
    <style>
      .cls-1 {
        stroke-width: 0px;
      }
    </style>
  </defs>
  <g id="_レイヤー_1のコピー" data-name=" レイヤー 1のコピー">
    <g>
      <path class="cls-1" d="M3.3,14.1c-.4-.2-.7-.5-.9-.9-.2-.4-.3-.8-.3-1.2v-.8h2.4v.9h8.1v-3H4.2v-2.4h7.7v-2.8h-7.6v1H1.9v-.9c0-.5,0-.9.3-1.3.3-.4.5-.7.9-.9s.8-.3,1.3-.3h7.3c.5,0,.9.1,1.3.3.4.2.7.5.9.9.2.4.3.8.3,1.3v3c0,.2,0,.3-.1.4.2.2.4.5.5.8.1.3.2.6.2.9v2.8c0,.5-.1.9-.3,1.2-.2.4-.5.7-.9.9s-.8.3-1.2.3h-7.9c-.5,0-.9-.1-1.3-.3h.1Z"/>
      <path class="cls-1" d="M18.2,14.1c-.4-.2-.7-.6-.9-1-.2-.4-.3-.8-.3-1.3v-7.8c0-.5.1-.9.3-1.3.2-.4.5-.7.9-.9.4-.2.8-.4,1.2-.4h7.9c.5,0,.9.1,1.2.4.4.2.7.5.9.9.2.4.3.8.3,1.3v7.8c0,.4-.1.9-.3,1.3-.2.4-.5.7-.9,1-.4.2-.8.4-1.2.4h-7.9c-.5,0-.9-.1-1.2-.4ZM19.3,9.8l7-5.9h-7c-.1,0,0,0,0,.2v5.7ZM20.4,11.9h7v-5.9l-7,5.9Z"/>
    </g>
  </g>
</svg>