<?xml version="1.0" encoding="UTF-8"?>
<svg id="_レイヤー_1" data-name=" レイヤー 1" xmlns="http://www.w3.org/2000/svg" width="20" height="30" version="1.1" viewBox="0 0 20 30" fill="#231815">
  <defs>
    <style>
      .cls-1 {
        stroke-width: 0px;
      }
    </style>
  </defs>
  <g id="_0" data-name=" 0">
    <path class="cls-1" d="M3,27.2c-.5-.5-.9-1.1-1.2-1.9s-.4-1.6-.4-2.4V6.9c0-.9.1-1.7.4-2.4.3-.7.7-1.3,1.2-1.8.5-.4,1-.7,1.6-.7h10.8c.6,0,1.1.2,1.6.7.5.4.9,1,1.2,1.8.3.7.4,1.6.4,2.4v16c0,.9-.1,1.7-.4,2.4-.3.8-.7,1.4-1.2,1.9s-1,.7-1.6.7H4.6c-.6,0-1.1-.2-1.6-.7ZM4.2,19.2L14.5,6.4H4.7s-.2,0-.3.2v12.7h-.2ZM5.4,23.4h9.9c.1,0,.2,0,.3-.2,0-.1.1-.3.1-.4v-12.2l-10.3,12.9h0Z"/>
  </g>
</svg>