<?xml version="1.0" encoding="UTF-8"?>
<svg id="_レイヤー_1" data-name="レイヤー 1" xmlns="http://www.w3.org/2000/svg" width="20" height="30" version="1.1" viewBox="0 0 20 30" fill="#231815">
  <defs>
    <style>
      .cls-1 {
        stroke-width: 0px;
      }
    </style>
  </defs>
  <g id="_6" data-name=" 6">
    <path class="cls-1" d="M3.1,27.2c-.5-.4-.9-1-1.2-1.7s-.4-1.5-.4-2.4V6.8c0-.9.1-1.7.4-2.4.3-.7.7-1.3,1.2-1.7s1-.6,1.6-.6h11.2v4.3H4.8c0,0-.2,0-.3.2,0,0,0,.3,0,.5v4.8c0,.2,0,.3,0,.5s.2.2.3.2h10.7c.6,0,1.1.2,1.6.6.5.4.9,1,1.2,1.7.3.7.4,1.5.4,2.4v5.8c0,.9-.1,1.7-.4,2.4-.3.7-.7,1.3-1.2,1.7-.5.4-1,.7-1.6.7H4.7c-.6,0-1.1-.2-1.6-.7ZM4.8,23.6h10.6c.1,0,.2,0,.3-.2,0-.1.1-.3.1-.5v-5.5c0-.2,0-.3-.1-.4,0-.1-.2-.2-.3-.2H4.4v6.2c0,.2,0,.4,0,.5,0,.1.2.2.3.2h0Z"/>
  </g>
</svg>