<?xml version="1.0" encoding="UTF-8"?>
<svg id="_レイヤー_1" data-name="レイヤー 1" xmlns="http://www.w3.org/2000/svg" width="20" height="30" version="1.1" viewBox="0 0 20 30" fill="#231815">
  <defs>
    <style>
      .cls-1 {
        stroke-width: 0px;
      }
    </style>
  </defs>
  <g id="_8" data-name=" 8">
    <path class="cls-1" d="M3,27.2c-.5-.4-.9-1-1.2-1.7s-.4-1.5-.4-2.4v-5.8c0-.5,0-.9.2-1.4.1-.4.2-.9.4-1.3-.2-.4-.3-.8-.4-1.3s-.2-.9-.2-1.4v-5.1c0-.9.1-1.7.4-2.4.3-.7.7-1.3,1.2-1.7s1-.6,1.6-.6h10.8c.5,0,1,.2,1.4.5.4.4.8.8,1.2,1.4.3.6.5,1.3.6,2v6c0,.9-.2,1.8-.6,2.7.4.8.6,1.7.6,2.7v5.8c0,.9-.1,1.7-.4,2.4-.3.7-.7,1.3-1.2,1.7-.5.4-1,.7-1.6.7H4.6c-.6,0-1.1-.2-1.6-.7h0ZM4.7,12.9h10.6c.1,0,.2,0,.3-.2,0-.1.1-.3.1-.5v-5.2c0-.2,0-.4-.1-.5,0,0-.2-.2-.3-.2H4.7c0,0-.2,0-.3.2s0,.3,0,.5v5.2c0,.2,0,.4,0,.5,0,.1.2.2.3.2ZM4.7,23.6h10.6c.1,0,.2,0,.3-.2,0-.1.1-.3.1-.5v-5.4c0-.2,0-.4-.1-.5,0-.1-.2-.2-.3-.2H4.7c0,0-.2,0-.3.2,0,.1,0,.3,0,.5v5.4c0,.2,0,.4,0,.5,0,.1.2.2.3.2Z"/>
  </g>
</svg>