<?xml version="1.0" encoding="UTF-8"?>
<svg id="_レイヤー_1" data-name="レイヤー 1" xmlns="http://www.w3.org/2000/svg" width="20" height="30" version="1.1" viewBox="0 0 20 30" fill="#231815">
  <defs>
    <style>
      .cls-1 {
        stroke-width: 0px;
      }
    </style>
  </defs>
  <g id="_9" data-name=" 9">
    <path class="cls-1" d="M3.1,27.3c-.4-.4-.8-.9-1.1-1.5s-.5-1.4-.7-2.2h13.9c.1,0,.2,0,.3-.2,0-.1.1-.3.1-.5v-4.9c0-.2,0-.3-.1-.5,0-.1-.2-.2-.3-.2H4.6c-.6,0-1.1-.2-1.6-.7-.5-.4-.9-1-1.2-1.8-.3-.7-.4-1.5-.4-2.4v-5.7c0-.9.1-1.7.4-2.4.3-.7.7-1.3,1.2-1.7s1-.6,1.6-.6h10.8c.6,0,1.1.2,1.6.6s.9,1,1.2,1.7c.3.7.4,1.5.4,2.4v16.3c0,.9-.1,1.7-.4,2.4-.3.7-.7,1.3-1.2,1.7-.5.4-1,.7-1.6.7H4.6c-.5,0-1-.2-1.4-.6h0ZM4.6,13.1h11v-6.1c0-.2,0-.4-.1-.5,0,0-.2-.2-.3-.2H4.6c0,0-.2,0-.3.2,0,0,0,.3,0,.5v5.4c0,.2,0,.4,0,.5,0,.1.2.2.3.2Z"/>
  </g>
</svg>