<?xml version="1.0" encoding="UTF-8"?>
<svg xmlns="http://www.w3.org/2000/svg" width="20" height="30" version="1.1" viewBox="0 0 20 30">
  <g id="_0" data-name="0" style="display: none;">
    <path d="M3,27.2c-.5-.5-.9-1.1-1.2-1.9-.3-.8-.4-1.6-.4-2.4V6.9c0-.9.1-1.7.4-2.4.3-.7.7-1.3,1.2-1.8.5-.4,1-.7,1.6-.7h10.8c.6,0,1.1.2,1.6.7.5.4.9,1,1.2,1.8.3.7.4,1.6.4,2.4v16c0,.9-.1,1.7-.4,2.4-.3.8-.7,1.4-1.2,1.9-.5.5-1,.7-1.6.7H4.6c-.6,0-1.1-.2-1.6-.7ZM4.2,19.2L14.5,6.4H4.7c-.1,0-.2,0-.3.2,0,.1-.1.3-.1.5v12.2ZM5.4,23.4h9.9c.1,0,.2,0,.3-.2,0-.1.1-.3.1-.4v-12.2l-10.3,12.9Z" style="fill: #231815; stroke-width: 0px;"/>
  </g>
  <g id="_1" data-name="1" style="display: none;">
    <path d="M10.8,27.9V8l-1.7,3.1h-3.8L10.4,2h3.3v25.9h-2.9Z" style="fill: #231815; stroke-width: 0px;"/>
  </g>
  <g id="_2" data-name="2" style="display: none;">
    <path d="M1.4,27.9v-9.9c0-.9.1-1.7.4-2.4.3-.7.7-1.3,1.2-1.7.5-.4,1-.6,1.6-.6h10.7c.1,0,.2,0,.3-.2,0-.1.1-.3.1-.5v-5.6c0-.2,0-.4-.1-.5,0-.1-.2-.2-.3-.2H4.7c-.1,0-.2,0-.3.2,0,.1-.1.3-.1.5v1.6H1.4v-1.7c0-.9.1-1.7.4-2.4.3-.7.7-1.3,1.2-1.7.5-.4,1-.6,1.6-.6h10.8c.6,0,1.1.2,1.6.6s.9,1,1.2,1.7c.3.7.4,1.5.4,2.4v5.9c0,.9-.1,1.7-.4,2.4-.3.7-.7,1.3-1.2,1.8-.5.4-1,.7-1.6.7H4.7c-.1,0-.2,0-.3.2,0,.1-.1.3-.1.5v4.8c0,.2,0,.4.1.5,0,.1.2.2.3.2h13.9v4.3H1.4Z" style="fill: #231815; stroke-width: 0px;"/>
  </g>
  <g id="_3" data-name="3" style="display: none;">
    <path d="M3,27.2c-.5-.4-.9-1-1.2-1.7-.3-.7-.4-1.5-.4-2.4v-1.3h2.9v1.2c0,.2,0,.4.1.5,0,.1.2.2.3.2h10.6c.1,0,.2,0,.3-.2,0-.1.1-.3.1-.5v-5.4c0-.2,0-.3-.1-.5s-.2-.2-.3-.2H4.4v-4.3h10.2c.1,0,.2,0,.3-.2,0-.1.1-.3.1-.5v-5c0-.2,0-.4-.1-.5,0-.1-.2-.2-.3-.2H4.7c-.1,0-.2,0-.3.2,0,.1-.1.3-.1.5v1.5H1.4v-1.7c0-.9.1-1.7.4-2.4.3-.7.7-1.3,1.2-1.7s1-.6,1.6-.6h10.1c.6,0,1.1.2,1.6.6.5.4.9,1,1.2,1.7.3.7.4,1.5.4,2.4v5.3c0,.3,0,.6,0,.9s0,.6-.2.9c.3.5.5,1.1.7,1.7.2.6.2,1.2.2,1.9v5.7c0,.9-.1,1.7-.4,2.4-.3.7-.7,1.3-1.2,1.7-.5.4-1,.7-1.6.7H4.6c-.6,0-1.2-.2-1.6-.7Z" style="fill: #231815; stroke-width: 0px;"/>
  </g>
  <g id="_4" data-name="4" style="display: none;">
    <path d="M12.5,27.9v-6.6H1.4v-4.2L12.6,2h2.8v15h2.5v4.3h-2.5v6.6h-2.9ZM5.7,17h6.8v-8.6l-6.8,8.6Z" style="fill: #231815; stroke-width: 0px;"/>
  </g>
  <g id="_5" data-name="5" style="display: none;">
    <path d="M3,27.2c-.5-.4-.9-1-1.2-1.7-.3-.7-.4-1.5-.4-2.4v-1.5h2.9v1.4c0,.2,0,.4.1.5,0,.1.2.2.3.2h10.6c.1,0,.2,0,.3-.2,0-.1.1-.3.1-.5v-5.4c0-.2,0-.4-.1-.5,0-.1-.2-.2-.3-.2H1.4V2h17.2v4.3H4.7c-.1,0-.2,0-.3.2,0,.1-.1.3-.1.5v4.9c0,.2,0,.4.1.5,0,.1.2.2.3.2h10.7c.6,0,1.1.2,1.6.6.5.4.9,1,1.2,1.7.3.7.4,1.5.4,2.4v5.8c0,.9-.1,1.7-.4,2.4-.3.7-.7,1.3-1.2,1.7-.5.4-1,.7-1.6.7H4.6c-.6,0-1.1-.2-1.6-.7Z" style="fill: #231815; stroke-width: 0px;"/>
  </g>
  <g id="_6" data-name="6" style="display: none;">
    <path d="M3.1,27.2c-.5-.4-.9-1-1.2-1.7-.3-.7-.4-1.5-.4-2.4V6.8c0-.9.1-1.7.4-2.4.3-.7.7-1.3,1.2-1.7.5-.4,1-.6,1.6-.6h11.2v4.3H4.8c-.1,0-.2,0-.3.2,0,.1-.1.3-.1.5v4.8c0,.2,0,.3.1.5s.2.2.3.2h10.7c.6,0,1.1.2,1.6.6.5.4.9,1,1.2,1.7.3.7.4,1.5.4,2.4v5.8c0,.9-.1,1.7-.4,2.4-.3.7-.7,1.3-1.2,1.7-.5.4-1,.7-1.6.7H4.7c-.6,0-1.1-.2-1.6-.7ZM4.8,23.6h10.6c.1,0,.2,0,.3-.2,0-.1.1-.3.1-.5v-5.5c0-.2,0-.3-.1-.4,0-.1-.2-.2-.3-.2H4.4v6.2c0,.2,0,.4.1.5,0,.1.2.2.3.2Z" style="fill: #231815; stroke-width: 0px;"/>
  </g>
  <g id="_7" data-name="7" style="display: none;">
    <path d="M13.7,27.9V6.9c0-.2,0-.3-.1-.5,0-.1-.2-.2-.3-.2H2.2V2h11.2c.6,0,1.1.2,1.6.6s.9,1,1.2,1.7c.3.7.4,1.5.4,2.4v21.1h-2.9Z" style="fill: #231815; stroke-width: 0px;"/>
  </g>
  <g id="_8" data-name="8" style="display: none;">
    <path d="M3,27.2c-.5-.4-.9-1-1.2-1.7-.3-.7-.4-1.5-.4-2.4v-5.8c0-.5,0-.9.2-1.4.1-.4.2-.9.4-1.3-.2-.4-.3-.8-.4-1.3s-.2-.9-.2-1.4v-5.1c0-.9.1-1.7.4-2.4.3-.7.7-1.3,1.2-1.7.5-.4,1-.6,1.6-.6h10.8c.5,0,1,.2,1.4.5.4.4.8.8,1.2,1.4.3.6.5,1.3.6,2v6c0,.9-.2,1.8-.6,2.7.4.8.6,1.7.6,2.7v5.8c0,.9-.1,1.7-.4,2.4-.3.7-.7,1.3-1.2,1.7-.5.4-1,.7-1.6.7H4.6c-.6,0-1.1-.2-1.6-.7ZM4.7,12.9h10.6c.1,0,.2,0,.3-.2,0-.1.1-.3.1-.5v-5.2c0-.2,0-.4-.1-.5,0-.1-.2-.2-.3-.2H4.7c-.1,0-.2,0-.3.2s-.1.3-.1.5v5.2c0,.2,0,.4.1.5,0,.1.2.2.3.2ZM4.7,23.6h10.6c.1,0,.2,0,.3-.2,0-.1.1-.3.1-.5v-5.4c0-.2,0-.4-.1-.5,0-.1-.2-.2-.3-.2H4.7c-.1,0-.2,0-.3.2,0,.1-.1.3-.1.5v5.4c0,.2,0,.4.1.5,0,.1.2.2.3.2Z" style="fill: #231815; stroke-width: 0px;"/>
  </g>
  <g id="_9" data-name="9" style="display: none;">
    <path d="M3.1,27.3c-.4-.4-.8-.9-1.1-1.5-.3-.6-.5-1.4-.7-2.2h13.9c.1,0,.2,0,.3-.2,0-.1.1-.3.1-.5v-4.9c0-.2,0-.3-.1-.5,0-.1-.2-.2-.3-.2H4.6c-.6,0-1.1-.2-1.6-.7-.5-.4-.9-1-1.2-1.8-.3-.7-.4-1.5-.4-2.4v-5.7c0-.9.1-1.7.4-2.4.3-.7.7-1.3,1.2-1.7.5-.4,1-.6,1.6-.6h10.8c.6,0,1.1.2,1.6.6s.9,1,1.2,1.7c.3.7.4,1.5.4,2.4v16.3c0,.9-.1,1.7-.4,2.4-.3.7-.7,1.3-1.2,1.7-.5.4-1,.7-1.6.7H4.6c-.5,0-1-.2-1.4-.6ZM4.6,13.1h11v-6.1c0-.2,0-.4-.1-.5,0-.1-.2-.2-.3-.2H4.6c-.1,0-.2,0-.3.2,0,.1-.1.3-.1.5v5.4c0,.2,0,.4.1.5,0,.1.2.2.3.2Z" style="fill: #231815; stroke-width: 0px;"/>
  </g>
  <g id="coron" style="display: none;">
    <path d="M8.5,9.5v-4.3h2.9v4.3h-2.9ZM8.5,26.2v-4.3h2.9v4.3h-2.9Z" style="fill: #231815; stroke-width: 0px;"/>
  </g>
  <g id="semi-corom" style="display: none;">
    <path d="M8.5,8.1V3.8h2.9v4.3h-2.9ZM8.5,29.5v-8.9h2.9v4.1c0,.8-.1,1.5-.4,2.1-.2.6-.6,1.2-1,1.7-.4.5-.9.8-1.5,1Z" style="fill: #231815; stroke-width: 0px;"/>
  </g>
  <g id="dot" style="display: none;">
    <path d="M8.6,27.9v-4.3h2.9v4.3h-2.9Z" style="fill: #231815; stroke-width: 0px;"/>
  </g>
  <g id="pluss" style="display: none;">
    <path d="M7.9,22.1v-4.6H3.4v-3.8h4.5v-4.5h3.8v4.5h4.6v3.8h-4.6v4.6h-3.8Z" style="fill: #231815; stroke-width: 0px;"/>
  </g>
  <g id="minus" style="display: none;">
    <path d="M3.6,17.5v-3.8h12.9v3.8H3.6Z" style="fill: #231815; stroke-width: 0px;"/>
  </g>
  <g id="Backspace" style="display: none;">
    <g>
      <path d="M.8,6h6.7c.3,0,.6.1.8.4s.4.7.6,1.2.2,1,.2,1.6v3.4c0,.2,0,.4,0,.6,0,.2,0,.4,0,.6.1.4.3.8.3,1.2,0,.4.1.8.1,1.2v3.8c0,.6,0,1.1-.2,1.6-.1.5-.3.9-.6,1.2-.2.3-.5.4-.8.4H.8V6ZM2.4,13h5c0,0,.1,0,.2-.1s0-.2,0-.3v-3.3c0-.1,0-.2,0-.3s0-.1-.2-.1H2.4c0,0-.1,0-.1.1s0,.2,0,.3v3.3c0,.1,0,.2,0,.3s0,.1.1.1ZM2.4,20.3h5.3c0,0,.1,0,.2-.1s0-.2,0-.3v-3.6c0-.1,0-.2,0-.3,0,0,0-.1-.2-.1H2.4c0,0-.1,0-.1.1,0,0,0,.2,0,.3v3.6c0,.1,0,.2,0,.3s0,.1.1.1Z" style="fill: #231815; stroke-width: 0px;"/>
      <path d="M12.3,23.2c-.3,0-.6-.1-.8-.4-.2-.3-.4-.7-.6-1.2-.1-.5-.2-1-.2-1.6v-1.2h1.4v1.1c0,.1,0,.2,0,.3s0,.1.2.1h5.3c0,0,.1,0,.2-.1s0-.2,0-.3v-3.4c0-.1,0-.2,0-.3,0,0,0-.1-.2-.1h-5.4c-.3,0-.6-.1-.8-.4-.2-.3-.4-.7-.6-1.2-.1-.5-.2-1-.2-1.6v-3.6c0-.6,0-1.1.2-1.6s.3-.9.6-1.2c.2-.3.5-.4.8-.4h5.4c.3,0,.6.1.8.4s.4.7.6,1.2c.1.5.2,1,.2,1.6v1.2h-1.5v-1.1c0-.1,0-.2,0-.3s0-.1-.2-.1h-5.3c0,0-.1,0-.2.1s0,.2,0,.3v3.4c0,.1,0,.2,0,.3,0,0,0,.1.2.1h5.4c.3,0,.6.1.8.4.2.3.4.7.6,1.2.1.5.2,1,.2,1.6v3.6c0,.6,0,1.1-.2,1.6-.1.5-.3.9-.6,1.2-.2.3-.5.4-.8.4h-5.4Z" style="fill: #231815; stroke-width: 0px;"/>
    </g>
  </g>
  <g id="Clear" style="display: none;">
    <g>
      <path d="M2.7,23.2c-.3,0-.6-.1-.8-.4-.2-.3-.4-.7-.6-1.2-.1-.5-.2-1-.2-1.6v-10.8c0-.6,0-1.1.2-1.6s.3-.9.6-1.2c.2-.3.5-.4.8-.4h7v2.9H2.9c-.1,0-.2,0-.3.2,0,.2-.1.4-.1.6v9.8c0,.3,0,.5.1.6s.2.2.3.2h6.7v2.9H2.7Z" style="fill: #231815; stroke-width: 0px;"/>
      <path d="M10.9,23.2V5.9h1.4v14.4h7.2v2.9h-8.6Z" style="fill: #231815; stroke-width: 0px;"/>
    </g>
  </g>
  <g id="Sec">
    <g>
      <path d="M2.8,23.2c-.2,0-.4-.2-.5-.5-.2-.3-.3-.8-.4-1.3,0-.6-.1-1.2-.1-1.8v-1.3h.9v1.2c0,.1,0,.3,0,.4,0,0,0,.1.1.1h3.5s0,0,.1-.1c0,0,0-.2,0-.4v-3.9c0-.1,0-.2,0-.3,0,0,0-.1-.1-.1h-3.5c-.2,0-.4-.2-.5-.5s-.3-.8-.4-1.3c0-.5-.1-1.2-.1-1.8v-4.1c0-.7,0-1.3.1-1.8,0-.6.2-1,.4-1.3.2-.3.3-.5.5-.5h3.5c.2,0,.4.2.5.5.2.3.3.8.4,1.3,0,.6.1,1.2.1,1.8v1.3h-.9v-1.2c0-.1,0-.3,0-.4,0,0,0-.1-.1-.1h-3.5s0,0-.1.1c0,0,0,.2,0,.4v3.9c0,.1,0,.2,0,.3,0,0,0,.1.1.1h3.5c.2,0,.4.2.5.5.2.3.3.8.4,1.3,0,.5.1,1.2.1,1.8v4.1c0,.7,0,1.3-.1,1.8,0,.6-.2,1-.4,1.3-.2.3-.3.5-.5.5h-3.5Z" style="fill: #231815; stroke-width: 0px;"/>
      <path d="M8.7,22.7c-.2-.3-.3-.8-.4-1.3,0-.5-.1-1.1-.1-1.8v-8.4c0-.7,0-1.3.1-1.8,0-.5.2-1,.4-1.3.2-.3.3-.5.5-.5h2.5c.2,0,.4.2.5.5.2.3.3.8.4,1.3s.1,1.1.1,1.8v5.8h-3.7v2.5c0,.1,0,.3,0,.4s0,.1.1.1h3.5v3.2h-3.6c-.2,0-.4-.2-.5-.5ZM9.1,14.1h2.7v-2.8c0-.1,0-.3,0-.4,0,0,0-.1-.1-.1h-2.5s0,0-.1.1,0,.2,0,.4v2.8Z" style="fill: #231815; stroke-width: 0px;"/>
      <path d="M14.1,22.7c-.2-.3-.3-.8-.4-1.3s-.1-1.1-.1-1.8v-8.4c0-.7,0-1.3.1-1.8s.2-1,.4-1.3c.2-.3.3-.5.5-.5h3.6v3.2h-3.5s0,0-.1.1,0,.2,0,.4v8.2c0,.1,0,.3,0,.4s0,.1.1.1h3.5v3.2h-3.6c-.2,0-.4-.2-.5-.5Z" style="fill: #231815; stroke-width: 0px;"/>
    </g>
  </g>
</svg>