<?xml version="1.0" encoding="UTF-8"?>
<svg id="_レイヤー_1" data-name=" レイヤー 1" xmlns="http://www.w3.org/2000/svg" width="20" height="30" version="1.1" viewBox="0 0 20 30">
  <defs>
    <style>
      .cls-1 {
        fill: #231815;
        stroke-width: 0px;
      }
    </style>
  </defs>
  <path class="cls-1" d="M2.8,24.6c-.2,0-.4-.2-.5-.5-.2-.3-.3-.8-.4-1.3,0-.6-.1-1.2-.1-1.8v-1.3h.9v1.6h0c0,.1,3.6.1,3.6.1v-4.7h0c0-.1-3.5-.1-3.5-.1-.2,0-.4-.2-.5-.5s-.3-.8-.4-1.3c0-.5-.1-1.2-.1-1.8v-4.1c0-.7,0-1.3.1-1.8,0-.6.2-1,.4-1.3s.3-.5.5-.5h3.5c.2,0,.4.2.5.5.2.3.3.8.4,1.3v3.1h-.9v-1.6h-3.6v4.7h0c0,.1,3.5.1,3.5.1.2,0,.4.2.5.5.2.3.3.8.4,1.3v7.7c0,.6-.2,1-.4,1.3-.2.3-.3.5-.5.5h-3.5.1Z"/>
  <path class="cls-1" d="M8.7,24.1c-.2-.3-.3-.8-.4-1.3,0-.5-.1-1.1-.1-1.8v-8.4c0-.7,0-1.3.1-1.8,0-.5.2-1,.4-1.3s.3-.5.5-.5h2.5c.2,0,.4.2.5.5.2.3.3.8.4,1.3s.1,1.1.1,1.8v5.8h-3.7v2.9c0,0,0,.1.1.1h3.5v3.2h-3.6c-.2,0-.4-.2-.5-.5,0,0,.2,0,.2,0ZM9.1,15.5h2.7v-3.2s0-.1-.1-.1h-2.6c-.1.2,0,.3,0,.5v2.8Z"/>
  <path class="cls-1" d="M14.1,24.1c-.2-.3-.3-.8-.4-1.3s-.1-1.1-.1-1.8v-8.4c0-.7,0-1.3.1-1.8s.2-1,.4-1.3.3-.5.5-.5h3.6v3.2h-3.6c-.1.2,0,.3,0,.5v8.6c0,0,0,.1.1.1h3.5v3.2h-3.6c-.2,0-.4-.2-.5-.5Z"/>
</svg>